<svg xmlns="http://www.w3.org/2000/svg" width="16" height="16" fill="currentColor" class="bi bi-plug" viewBox="0 0 16 16">
  <path d="M6 0a.5.5 0 0 1 .5.5V3h3V.5a.5.5 0 0 1 1 0V3h1a.5.5 0 0 1 .5.5v3A3.5 3.5 0 0 1 8.5 10c0 .638 1.488 1.625 2.193 2.158.3.227.307.45.297.66-.025.503-.497.982-1.24 1.183V16h-3v-2c-.743-.201-1.215-.68-1.24-1.183-.01-.21.003-.433.304-.66.705-.533 2.186-1.52 2.186-2.157A3.5 3.5 0 0 1 8.5 6.5v-3a.5.5 0 0 1 .5-.5h1V.5A.5.5 0 0 1 6 0M4.5 4v2.5A2.5 2.5 0 0 0 7 9s-1.5 1.05-2.028 1.446c-.452.339-.773.687-.722 1.055.03.223.3.491.75.609V13h3v-1.11c.45-.118.72-.386.75-.609.051-.368-.27-.716-.722-1.055C11.75 9.8 10.25 9 10.25 9A2.5 2.5 0 0 0 13 6.5V4z"/>
</svg>
