<svg xmlns="http://www.w3.org/2000/svg" width="24" height="24" viewBox="0 0 24 24" fill="none">
  <!-- 1. Inner Shadow (Top-Left) -->
  <g transform="translate(-0.6, -0.6)" stroke="#5D4037" stroke-opacity="0.6" stroke-width="1.6" stroke-linecap="round" stroke-linejoin="round">
    <path d="M7 9l5-6 5 6" /><path d="M4 9h16" /><path d="M5.5 9l1.5 10a2 2 0 0 0 2 2h6a2 2 0 0 0 2-2L18.5 9" />
    <path d="M8.5 9v12" /><path d="M11 9v12" /><path d="M13.5 9v12" /><path d="M16 9v12" /><path d="M6 14.5h12.5" />
  </g>
  <!-- 2. Inner Highlight (Bottom-Right) -->
  <g transform="translate(0.6, 0.6)" stroke="#FFE0B2" stroke-opacity="0.4" stroke-width="1.4" stroke-linecap="round" stroke-linejoin="round">
    <path d="M7 9l5-6 5 6" /><path d="M4 9h16" /><path d="M5.5 9l1.5 10a2 2 0 0 0 2 2h6a2 2 0 0 0 2-2L18.5 9" />
    <path d="M8.5 9v12" /><path d="M11 9v12" /><path d="M13.5 9v12" /><path d="M16 9v12" /><path d="M6 14.5h12.5" />
  </g>
  <!-- 3. Main Base Line (Light Brown) -->
  <g stroke="#CD853F" stroke-width="1.5" stroke-linecap="round" stroke-linejoin="round">
    <path d="M7 9l5-6 5 6" /><path d="M4 9h16" /><path d="M5.5 9l1.5 10a2 2 0 0 0 2 2h6a2 2 0 0 0 2-2L18.5 9" />
    <!-- Grid Detail -->
    <path d="M8.5 9v12" opacity="0.6"/><path d="M11 9v12" opacity="0.6"/><path d="M13.5 9v12" opacity="0.6"/><path d="M16 9v12" opacity="0.6"/>
    <path d="M6 14.5h12.5" opacity="0.6"/>
  </g>
</svg>
