<svg xmlns="http://www.w3.org/2000/svg" width="24" height="24" viewBox="0 0 24 24" fill="none">
  <!-- 1. Top-Left Shadow (Inner Relief) -->
  <g transform="translate(-0.8, -0.8)" stroke="#000000" stroke-opacity="0.6" stroke-width="2" stroke-linecap="round" stroke-linejoin="round">
    <path d="M7 9l5-6 5 6" />
    <path d="M4 9h16" />
    <path d="M5 9l1.5 10a2 2 0 0 0 2 2h7a2 2 0 0 0 2-2L19 9" />
    <path d="M9 9v12" /><path d="M12 9v12" /><path d="M15 9v12" /><path d="M5.5 15h13" />
  </g>
  <!-- 2. Bottom-Right Highlight -->
  <g transform="translate(0.8, 0.8)" stroke="#ffffff" stroke-opacity="0.25" stroke-width="1.8" stroke-linecap="round" stroke-linejoin="round">
    <path d="M7 9l5-6 5 6" />
    <path d="M4 9h16" />
    <path d="M5 9l1.5 10a2 2 0 0 0 2 2h7a2 2 0 0 0 2-2L19 9" />
    <path d="M9 9v12" /><path d="M12 9v12" /><path d="M15 9v12" /><path d="M5.5 15h13" />
  </g>
  <!-- 3. Main Dark Recess -->
  <g stroke="#121212" stroke-width="1.8" stroke-linecap="round" stroke-linejoin="round">
    <path d="M7 9l5-6 5 6" />
    <path d="M4 9h16" />
    <path d="M5 9l1.5 10a2 2 0 0 0 2 2h7a2 2 0 0 0 2-2L19 9" />
    <path d="M9 9v12" /><path d="M12 9v12" /><path d="M15 9v12" /><path d="M5.5 15h13" />
  </g>
</svg>
