<svg xmlns="http://www.w3.org/2000/svg" width="24" height="24" viewBox="0 0 24 24" fill="none" stroke="currentColor" stroke-width="1.5" stroke-linecap="round" stroke-linejoin="round">
  <!-- Globe -->
  <circle cx="12" cy="12" r="8.5" />
  <path d="M3.5 12h17" stroke-width="1" opacity="0.35"/>
  <path d="M12 3.5a15 15 0 0 0 0 17" stroke-width="1" opacity="0.35"/>
  <path d="M12 3.5a15 15 0 0 1 0 17" stroke-width="1" opacity="0.35"/>

  <!-- Flight Path Orbit Loop -->
  <path d="M1.5 14c3-4 5-6 10-5s6 3 9 2" stroke-dasharray="2 3" stroke-width="1.25" />
  
  <!-- Plane Profile -->
  <g transform="translate(19.5, 7.5) rotate(-35)">
    <path d="M2 12h3l2-5h2l-2 5h3l1-2h1l-1 2.5 1 2.5h-1l-1-2h-3l2 5h-2l-2-5h-3z" fill="currentColor" stroke="none" transform="scale(0.65) translate(-6, -12)"/>
  </g>
</svg>
