<svg xmlns="http://www.w3.org/2000/svg" width="24" height="24" viewBox="0 0 24 24" fill="none" stroke="currentColor" stroke-width="1.5" stroke-linecap="round" stroke-linejoin="round">
  <!-- Globe -->
  <circle cx="11" cy="11" r="8" />
  <path d="M3.6 11h14.8" stroke-width="1" opacity="0.5"/>
  <path d="M11 3a15 15 0 0 0 0 16" stroke-width="1" opacity="0.5"/>
  <path d="M11 3a15 15 0 0 1 0 16" stroke-width="1" opacity="0.5"/>

  <!-- Orbit Ring -->
  <path d="M2 13c0-3 5-6 10-6s10 3 10 6" stroke-dasharray="2 2" />
  
  <!-- Gear at Bottom -->
  <g transform="translate(11, 19)">
    <circle cx="0" cy="0" r="3.5" fill="#1a1b26" stroke="none" /> <!-- clear background -->
    <path d="M-2.5 -1.5 L -1.5 -2.5 L -1.5 -3.5 L 0 -4 L 1.5 -3.5 L 1.5 -2.5 L 2.5 -1.5 L 3.5 -1.5 L 4 0 L 3.5 1.5 L 2.5 1.5 L 1.5 2.5 L 1.5 3.5 L 0 4 L -1.5 3.5 L -1.5 2.5 L -2.5 1.5 L -3.5 1.5 L -4 0 L -3.5 -1.5 Z" />
    <circle cx="0" cy="0" r="1.5" />
  </g>

  <!-- Plane -->
  <g transform="translate(18, 5) rotate(-45)">
    <path d="M2 12h3l2-5h2l-2 5h3l1-2h1l-1 2.5 1 2.5h-1l-1-2h-3l2 5h-2l-2-5h-3z" fill="currentColor" stroke="none" transform="scale(0.6)"/>
  </g>

  <!-- Flight Paths/Arrows -->
  <path d="M16 10 l3 -3" stroke-dasharray="1 1" />
  <path d="M19 7 l-1 1" stroke-width="1"/>
  <path d="M19 7 l0 2" stroke-width="1"/>
</svg>
