<svg xmlns="http://www.w3.org/2000/svg" width="24" height="24" viewBox="0 0 24 24" fill="none">
  <!-- 1. Top-Left Shadow -->
  <g transform="translate(-0.8, -0.8)" stroke="#000000" stroke-opacity="0.6" stroke-width="2" stroke-linecap="round" stroke-linejoin="round">
    <path d="M18 11V7a2 2 0 0 0-4 0v3" />
    <path d="M14 10V4a2 2 0 0 0-4 0v6" />
    <path d="M10 10V5a2 2 0 0 0-4 0v7" />
    <path d="M18 9a2 2 0 0 1 4 0v5a7 7 0 0 1-7 7h-2c-2.5 0-4-1-6-3.5L3.5 13a1.5 1.5 0 0 1 2-2l3.5 3" />
  </g>
  <!-- 2. Bottom-Right Highlight -->
  <g transform="translate(0.8, 0.8)" stroke="#ffffff" stroke-opacity="0.25" stroke-width="1.8" stroke-linecap="round" stroke-linejoin="round">
    <path d="M18 11V7a2 2 0 0 0-4 0v3" />
    <path d="M14 10V4a2 2 0 0 0-4 0v6" />
    <path d="M10 10V5a2 2 0 0 0-4 0v7" />
    <path d="M18 9a2 2 0 0 1 4 0v5a7 7 0 0 1-7 7h-2c-2.5 0-4-1-6-3.5L3.5 13a1.5 1.5 0 0 1 2-2l3.5 3" />
  </g>
  <!-- 3. Main Dark Recess -->
  <g stroke="#121212" stroke-width="1.8" stroke-linecap="round" stroke-linejoin="round">
    <path d="M18 11V7a2 2 0 0 0-4 0v3" />
    <path d="M14 10V4a2 2 0 0 0-4 0v6" />
    <path d="M10 10V5a2 2 0 0 0-4 0v7" />
    <path d="M18 9a2 2 0 0 1 4 0v5a7 7 0 0 1-7 7h-2c-2.5 0-4-1-6-3.5L3.5 13a1.5 1.5 0 0 1 2-2l3.5 3" />
  </g>
</svg>
