<svg xmlns="http://www.w3.org/2000/svg" width="16" height="16" fill="currentColor" class="bi bi-layers" viewBox="0 0 16 16">
  <path d="M8.235 1.559a.5.5 0 0 0-.47 0L.905 5.5a.5.5 0 0 0 0 .862L7.765 10.3c.148.087.322.087.47 0l6.86-3.938a.5.5 0 0 0 0-.862L8.235 1.559zM7.13 6.05l.87-.5.87.5-.87.5-.87-.5z"/>
  <path d="M7.765 11.53c.148.087.322.087.47 0l6.86-3.938a.5.5 0 1 1 .503.864l-6.86 3.938a1.5 1.5 0 0 1-1.416 0l-6.86-3.938a.5.5 0 1 1 .503-.864l6.86 3.938z"/>
  <path d="M7.765 13.78c.148.087.322.087.47 0l6.86-3.938a.5.5 0 1 1 .503.864l-6.86 3.938a1.5 1.5 0 0 1-1.416 0l-6.86-3.938a.5.5 0 1 1 .503-.864l6.86 3.938z"/>
</svg>
