<svg xmlns="http://www.w3.org/2000/svg" width="16" height="16" fill="currentColor" class="bi bi-tools" viewBox="0 0 16 16">
  <g transform="translate(1, 1) scale(0.875)">
    <path d="M1 0 0 1l2.2 3.081a1 1 0 0 0 .815.419h.07a1 1 0 0 1 .708.293l2.675 2.675-2.617 2.654A3.003 3.003 0 0 0 0 13a3 3 0 1 0 5.878-.851l2.654-2.617.968.968-.305.914a1 1 0 0 0 .242 1.023l3.27 3.27a.997.997 0 0 0 1.414 0l1.586-1.586a.997.997 0 0 0 0-1.414l-3.27-3.27a1 1 0 0 0-1.023-.242L10.5 9.5l-.96-.96 2.68-2.643A3.005 3.005 0 0 0 16 3c0-1.657-1.343-3-3-3-.899 0-1.71.391-2.264 1.011l-2.643 2.68-.96-.96.914-.305a1 1 0 0 0 .142-1.495L5.003.235A.997.997 0 0 0 3.59 0H1zM2 1h.586l1.214 1.214L2.586 3.428 1.372 2.214 2 1zm1.5 2a.5.5 0 1 1 0-1 .5.5 0 0 1 0 1zM11 12a1 1 0 1 1-2 0 1 1 0 0 1 2 0zm3.5-2a.5.5 0 1 1-1 0 .5.5 0 0 1 1 0z"/>
  </g>
</svg>
